<?xml version="1.0" encoding="utf-8"?>
<svg version="1.1" id="Layer_1" xmlns="http://www.w3.org/2000/svg" xmlns:xlink="http://www.w3.org/1999/xlink" x="0px" y="0px"
		 viewBox="0 0 1280 1080" style="enable-background:new 0 0 1280 1080;" xml:space="preserve">
<style type="text/css">
	.st0{fill:#FFFFFF;}
	.st1{fill:url(#SVGID_1_);}
	.st2{fill:url(#SVGID_00000080911178519600477980000003952147620744795820_);}
	.st3{fill:url(#SVGID_00000075135005459506743950000009670313626415715734_);}
	.st4{fill:#E8E7DD;}
	.st5{fill:#B8C1D3;}
	.st6{fill:#F2F2F2;}
	.st7{fill:#B0ACB0;}
</style>
	<rect class="st0" width="1280" height="1080"/>
	<g>
	<linearGradient id="SVGID_1_" gradientUnits="userSpaceOnUse" x1="0" y1="25" x2="1280" y2="25">
		<stop  offset="0" style="stop-color:#9BA4BD"/>
		<stop  offset="1.174472e-02" style="stop-color:#9FA7BF"/>
		<stop  offset="9.245284e-02" style="stop-color:#B2B9CD"/>
		<stop  offset="0.1739" style="stop-color:#BEC3D5"/>
		<stop  offset="0.2566" style="stop-color:#C2C7D8"/>
		<stop  offset="0.2806" style="stop-color:#C5C9D6"/>
		<stop  offset="0.3937" style="stop-color:#CFD0CF"/>
		<stop  offset="0.5397" style="stop-color:#D2D2CD"/>
		<stop  offset="0.6675" style="stop-color:#C7C9CA"/>
		<stop  offset="0.8881" style="stop-color:#ABB2C2"/>
		<stop  offset="0.9975" style="stop-color:#9BA4BD"/>
	</linearGradient>
		<rect class="st1" width="1280" height="50"/>
</g>
	<g>

		<linearGradient id="SVGID_00000016061970588393053670000017451635404067664548_" gradientUnits="userSpaceOnUse" x1="0" y1="1008.5" x2="1280" y2="1008.5">
		<stop  offset="0" style="stop-color:#9BA4BD"/>
			<stop  offset="1.174472e-02" style="stop-color:#9FA7BF"/>
			<stop  offset="9.245284e-02" style="stop-color:#B2B9CD"/>
			<stop  offset="0.1739" style="stop-color:#BEC3D5"/>
			<stop  offset="0.2566" style="stop-color:#C2C7D8"/>
			<stop  offset="0.2806" style="stop-color:#C5C9D6"/>
			<stop  offset="0.3937" style="stop-color:#CFD0CF"/>
			<stop  offset="0.5397" style="stop-color:#D2D2CD"/>
			<stop  offset="0.6675" style="stop-color:#C7C9CA"/>
			<stop  offset="0.8881" style="stop-color:#ABB2C2"/>
			<stop  offset="0.9975" style="stop-color:#9BA4BD"/>
	</linearGradient>
		<rect y="937" style="fill:url(#SVGID_00000016061970588393053670000017451635404067664548_);" width="1280" height="143"/>
</g>
	<g>

		<linearGradient id="SVGID_00000160174029348178740870000011593812211375171223_" gradientUnits="userSpaceOnUse" x1="0" y1="213" x2="1280" y2="213">
		<stop  offset="0" style="stop-color:#9BA4BD"/>
			<stop  offset="1.174472e-02" style="stop-color:#9FA7BF"/>
			<stop  offset="9.245284e-02" style="stop-color:#B2B9CD"/>
			<stop  offset="0.1739" style="stop-color:#BEC3D5"/>
			<stop  offset="0.2566" style="stop-color:#C2C7D8"/>
			<stop  offset="0.2806" style="stop-color:#C5C9D6"/>
			<stop  offset="0.3937" style="stop-color:#CFD0CF"/>
			<stop  offset="0.5397" style="stop-color:#D2D2CD"/>
			<stop  offset="0.6675" style="stop-color:#C7C9CA"/>
			<stop  offset="0.8881" style="stop-color:#ABB2C2"/>
			<stop  offset="0.9975" style="stop-color:#9BA4BD"/>
	</linearGradient>
		<rect y="88" style="fill:url(#SVGID_00000160174029348178740870000011593812211375171223_);" width="1280" height="250"/>
</g>
	<rect x="49" y="373" class="st4" width="337" height="162"/>
	<rect x="49" y="558" class="st5" width="337" height="16.8"/>
	<rect x="49" y="591.6" class="st5" width="337" height="16.8"/>
	<rect x="49" y="625.2" class="st5" width="337" height="16.8"/>
	<rect x="29" y="984" class="st6" width="176" height="12"/>
	<rect x="238" y="984" class="st6" width="176" height="12"/>
	<rect x="447" y="984" class="st6" width="176" height="12"/>
	<rect x="656" y="984" class="st6" width="176" height="12"/>
	<rect x="865" y="984" class="st6" width="176" height="12"/>
	<rect x="1074" y="984" class="st6" width="176" height="12"/>
	<rect x="29" y="1018" class="st6" width="176" height="12"/>
	<rect x="238" y="1018" class="st6" width="176" height="12"/>
	<rect x="447" y="1018" class="st6" width="176" height="12"/>
	<rect x="656" y="1018" class="st6" width="176" height="12"/>
	<rect x="865" y="1018" class="st6" width="176" height="12"/>
	<rect x="1074" y="1018" class="st6" width="176" height="12"/>
	<rect x="50" y="800" class="st5" width="555" height="16.8"/>
	<rect x="50" y="833.6" class="st5" width="555" height="16.8"/>
	<rect x="50" y="867.2" class="st5" width="555" height="16.8"/>
	<rect x="268" y="665" class="st7" width="118" height="33"/>
	<rect x="471" y="372" class="st4" width="337" height="162"/>
	<rect x="471" y="557" class="st5" width="337" height="16.8"/>
	<rect x="471" y="590.6" class="st5" width="337" height="16.8"/>
	<rect x="471" y="624.2" class="st5" width="337" height="16.8"/>
	<rect x="690" y="664" class="st7" width="118" height="33"/>
	<rect x="897" y="372" class="st4" width="337" height="162"/>
	<rect x="897" y="557" class="st5" width="337" height="16.8"/>
	<rect x="897" y="590.6" class="st5" width="337" height="16.8"/>
	<rect x="897" y="624.2" class="st5" width="337" height="16.8"/>
	<rect x="1116" y="664" class="st7" width="118" height="33"/>
	<rect x="50" y="750" class="st5" width="463.8" height="33"/>
	<rect x="676" y="800" class="st5" width="555" height="16.8"/>
	<rect x="676" y="833.6" class="st5" width="555" height="16.8"/>
	<rect x="676" y="867.2" class="st5" width="555" height="16.8"/>
	<rect x="676" y="750" class="st5" width="463.8" height="33"/>
	<path class="st0" d="M94.6,20.3H97l1.2,5.7l0.8,4.6h0.3l0.9-4.6l1.3-5.7h2.6l1.4,5.7l0.9,4.6h0.3l0.8-4.6l1.3-5.7h2.3l-3,12.5H105
	l-1.5-6.1l-0.7-4h-0.3l-0.7,4l-1.5,6.1h-2.9L94.6,20.3z M117.6,33.1c-0.8,0-1.5-0.1-2.2-0.4c-0.7-0.3-1.2-0.7-1.7-1.2
	c-0.5-0.5-0.8-1.2-1.1-2c-0.3-0.8-0.4-1.8-0.4-2.9c0-1.1,0.1-2.1,0.4-2.9c0.2-0.8,0.6-1.5,1-2s1-0.9,1.6-1.2s1.3-0.4,2.1-0.4
	c1.6,0,2.8,0.5,3.7,1.6c0.9,1,1.3,2.7,1.3,5v0.6h-7.6V28c0,1,0.3,1.8,0.8,2.3c0.5,0.5,1.2,0.8,2.1,0.8c0.8,0,1.4-0.2,1.9-0.5
	c0.5-0.3,0.9-0.8,1.2-1.4l1.4,1.4c-0.4,0.8-1.1,1.4-1.8,1.9C119.6,32.8,118.7,33.1,117.6,33.1z M117.4,22c-0.8,0-1.5,0.3-1.9,0.8
	s-0.7,1.3-0.7,2.3v0.5h5V25C119.8,23,119,22,117.4,22z M125.1,15h2.5v7.3h0.3c0.2-0.7,0.6-1.3,1.1-1.7c0.5-0.4,1.2-0.6,1.9-0.6
	c1.5,0,2.6,0.6,3.3,1.7c0.7,1.1,1.1,2.7,1.1,4.8c0,2.1-0.4,3.7-1.1,4.8c-0.7,1.1-1.8,1.7-3.3,1.7c-0.7,0-1.4-0.2-1.9-0.6
	c-0.5-0.4-0.9-1-1.1-1.7h-0.3v2h-2.5V15z M130,31c0.8,0,1.5-0.3,2-0.8c0.5-0.5,0.7-1.3,0.7-2.2v-2.8c0-1-0.2-1.7-0.7-2.2
	c-0.5-0.5-1.1-0.8-2-0.8c-0.7,0-1.3,0.2-1.7,0.6c-0.5,0.4-0.7,0.9-0.7,1.5v4.7c0,0.6,0.2,1.1,0.7,1.5C128.7,30.8,129.2,31,130,31z
	 M141.5,33.1c-1,0-1.9-0.2-2.7-0.6c-0.8-0.4-1.4-1-2-1.7l1.6-1.5c0.4,0.6,0.9,1,1.4,1.3c0.5,0.3,1.1,0.4,1.8,0.4
	c0.7,0,1.2-0.1,1.5-0.4c0.4-0.3,0.5-0.7,0.5-1.3c0-0.5-0.1-0.8-0.3-1.1c-0.2-0.3-0.6-0.5-1.2-0.6l-1.1-0.2c-1.3-0.2-2.2-0.6-2.8-1.2
	c-0.6-0.6-0.9-1.4-0.9-2.5c0-1.3,0.4-2.2,1.1-2.9c0.8-0.6,1.8-0.9,3.1-0.9c1,0,1.8,0.2,2.5,0.5c0.7,0.3,1.3,0.8,1.8,1.4l-1.5,1.5
	c-0.3-0.5-0.7-0.8-1.2-1.1c-0.5-0.2-1-0.4-1.5-0.4c-1.2,0-1.9,0.6-1.9,1.7c0,0.5,0.1,0.9,0.4,1.1c0.3,0.2,0.7,0.4,1.2,0.5l1.1,0.2
	c1.3,0.2,2.2,0.6,2.8,1.2c0.6,0.6,0.8,1.3,0.8,2.3c0,1.3-0.4,2.2-1.2,2.9C144.1,32.7,143,33.1,141.5,33.1z M149.8,17.9
	c-1,0-1.5-0.4-1.5-1.3v-0.4c0-0.8,0.5-1.3,1.5-1.3c1,0,1.5,0.4,1.5,1.3v0.4C151.3,17.5,150.8,17.9,149.8,17.9z M148.6,20.3h2.5v12.5
	h-2.5V20.3z M157.5,32.8c-0.9,0-1.5-0.2-1.9-0.6c-0.4-0.4-0.6-1-0.6-1.9v-8h-1.7v-2h1c0.4,0,0.7-0.1,0.8-0.3
	c0.1-0.2,0.2-0.5,0.2-0.9v-2.3h2.2v3.4h2.3v2h-2.3v8.4h2.2v2H157.5z M166.7,33.1c-0.8,0-1.5-0.1-2.2-0.4c-0.7-0.3-1.2-0.7-1.7-1.2
	c-0.5-0.5-0.8-1.2-1.1-2c-0.3-0.8-0.4-1.8-0.4-2.9c0-1.1,0.1-2.1,0.4-2.9c0.2-0.8,0.6-1.5,1-2s1-0.9,1.6-1.2s1.3-0.4,2.1-0.4
	c1.6,0,2.8,0.5,3.7,1.6c0.9,1,1.3,2.7,1.3,5v0.6H164V28c0,1,0.3,1.8,0.8,2.3c0.5,0.5,1.2,0.8,2.1,0.8c0.8,0,1.4-0.2,1.9-0.5
	c0.5-0.3,0.9-0.8,1.2-1.4l1.4,1.4c-0.4,0.8-1.1,1.4-1.8,1.9C168.8,32.8,167.9,33.1,166.7,33.1z M166.6,22c-0.8,0-1.5,0.3-1.9,0.8
	S164,24,164,25v0.5h5V25C169,23,168.2,22,166.6,22z"/>
	<path class="st0" d="M21.9,33c-1.2,0-2.3-0.2-3.3-0.7c-0.9-0.5-1.7-1.2-2.4-2.1l1.8-1.6c0.5,0.7,1.1,1.2,1.7,1.6
	c0.6,0.4,1.4,0.5,2.2,0.5c2,0,3-0.9,3-2.7c0-0.7-0.2-1.3-0.5-1.7c-0.4-0.4-1-0.7-1.8-0.9l-1.4-0.3c-1.5-0.3-2.6-0.9-3.3-1.6
	c-0.7-0.7-1.1-1.8-1.1-3.1c0-1.6,0.5-2.7,1.4-3.5c0.9-0.8,2.2-1.2,3.9-1.2c1.2,0,2.2,0.2,3,0.6c0.8,0.4,1.5,1,2.1,1.9l-1.8,1.5
	c-0.4-0.6-0.9-1.1-1.5-1.4c-0.5-0.3-1.2-0.5-2-0.5c-0.9,0-1.6,0.2-2.1,0.6c-0.5,0.4-0.7,1-0.7,1.8c0,0.7,0.2,1.2,0.5,1.6
	s0.9,0.6,1.8,0.8L23,23c0.8,0.2,1.5,0.4,2,0.7s1,0.6,1.4,1c0.4,0.4,0.6,0.8,0.8,1.4c0.2,0.5,0.2,1.1,0.2,1.8c0,1.7-0.5,3-1.5,3.8
	C25,32.5,23.6,33,21.9,33z M38.1,32.7c-0.6,0-1.1-0.2-1.4-0.5c-0.3-0.3-0.5-0.9-0.5-1.6h-0.3c-0.2,0.8-0.5,1.3-1.1,1.8
	c-0.6,0.4-1.2,0.6-2,0.6c-1.2,0-2.1-0.3-2.7-0.9c-0.6-0.6-0.9-1.5-0.9-2.7c0-1.2,0.4-2.2,1.2-2.9c0.8-0.7,2-1,3.5-1H36v-1.2
	c0-0.8-0.2-1.4-0.5-1.8c-0.4-0.4-0.9-0.6-1.7-0.6c-0.6,0-1.1,0.1-1.5,0.4s-0.8,0.7-1.2,1.3l-1.5-1.3c0.4-0.7,1-1.3,1.7-1.7
	c0.7-0.4,1.6-0.7,2.6-0.7c1.5,0,2.6,0.4,3.4,1.1c0.8,0.7,1.1,1.8,1.1,3.2v6.4h1.2v2H38.1z M33.6,31c0.4,0,0.7-0.1,1-0.2
	s0.6-0.3,0.8-0.5c0.2-0.2,0.4-0.4,0.5-0.7c0.1-0.3,0.2-0.5,0.2-0.9v-1.7h-1.9c-1.6,0-2.3,0.6-2.3,1.7v0.6c0,0.6,0.2,1,0.5,1.2
	C32.6,30.9,33,31,33.6,31z M42,32.7V20.2h2.5v2.1h0.3c0.5-1.6,1.5-2.4,3-2.4c1.6,0,2.6,0.8,3.1,2.4h0.3c0.3-0.8,0.7-1.4,1.2-1.8
	c0.6-0.4,1.3-0.6,2.1-0.6c1.1,0,1.9,0.4,2.5,1.1c0.6,0.8,0.9,1.9,0.9,3.3v8.3h-2.5v-7.9c0-0.9-0.2-1.6-0.5-2
	c-0.3-0.5-0.8-0.7-1.5-0.7c-0.6,0-1.1,0.2-1.6,0.6s-0.7,0.9-0.7,1.6v8.4h-2.5v-7.9c0-0.9-0.2-1.6-0.5-2c-0.3-0.5-0.8-0.7-1.5-0.7
	c-0.6,0-1.2,0.2-1.6,0.6c-0.4,0.4-0.6,0.9-0.6,1.6v8.4H42z M61.1,20.2h2.5v2h0.3c0.2-0.7,0.6-1.3,1.1-1.7c0.5-0.4,1.2-0.6,1.9-0.6
	c1.5,0,2.6,0.6,3.3,1.7c0.7,1.1,1.1,2.7,1.1,4.8c0,2.1-0.4,3.7-1.1,4.8c-0.7,1.1-1.8,1.7-3.3,1.7c-0.7,0-1.4-0.2-1.9-0.6
	c-0.5-0.4-0.9-1-1.1-1.7h-0.3v6.8h-2.5V20.2z M66,30.8c0.8,0,1.5-0.3,2-0.8c0.5-0.5,0.7-1.3,0.7-2.2V25c0-1-0.2-1.7-0.7-2.2
	c-0.5-0.5-1.1-0.8-2-0.8c-0.7,0-1.3,0.2-1.7,0.6c-0.5,0.4-0.7,0.9-0.7,1.5v4.7c0,0.6,0.2,1.1,0.7,1.5C64.7,30.7,65.3,30.8,66,30.8z
	 M76.4,32.7c-0.9,0-1.5-0.2-1.9-0.6c-0.4-0.4-0.6-1-0.6-1.8V14.9h2.5v15.7h1.5v2H76.4z M84.7,33c-0.8,0-1.5-0.1-2.2-0.4
	c-0.7-0.3-1.2-0.7-1.7-1.2c-0.5-0.5-0.8-1.2-1.1-2c-0.3-0.8-0.4-1.8-0.4-2.9c0-1.1,0.1-2.1,0.4-2.9c0.2-0.8,0.6-1.5,1-2
	s1-0.9,1.6-1.2s1.3-0.4,2.1-0.4c1.6,0,2.8,0.5,3.7,1.6c0.9,1,1.3,2.7,1.3,5v0.6H82v0.8c0,1,0.3,1.8,0.8,2.3c0.5,0.5,1.2,0.8,2.1,0.8
	c0.8,0,1.4-0.2,1.9-0.5c0.5-0.3,0.9-0.8,1.2-1.4l1.4,1.4c-0.4,0.8-1.1,1.4-1.8,1.9C86.8,32.7,85.9,33,84.7,33z M84.6,21.9
	c-0.8,0-1.5,0.3-1.9,0.8S82,23.9,82,24.9v0.5h5v-0.5C87,22.9,86.2,21.9,84.6,21.9z"/>
</svg>
